<svg width="219" height="119" viewBox="0 0 219 119" fill="none" xmlns="http://www.w3.org/2000/svg">
<path d="M171.185 118.909C171.423 118.676 171.661 118.443 171.899 118.21C170.597 115.881 169.273 113.574 167.928 111.288C153.857 87.3839 137.405 65.8109 118.572 46.5687L118.382 64.2453C118.382 64.2453 118.382 64.2453 118.382 64.2453C132.264 50.6581 143.966 34.8423 153.485 16.7978C154.747 14.4058 155.971 11.9746 157.156 9.50432C156.923 9.2661 156.69 9.02788 156.457 8.78966C153.961 9.92161 151.505 11.0927 149.086 12.303C130.841 21.433 114.778 32.7916 100.895 46.3788C100.895 46.3788 100.895 46.3788 100.895 46.3788L91.9622 55.1222L100.706 64.0555C119.539 83.2977 140.753 100.209 164.349 114.79C166.606 116.184 168.884 117.557 171.185 118.909Z" fill="white"/>
<path d="M45.9155 0.638316C45.6854 0.879439 45.4552 1.12056 45.2251 1.36168C46.6056 3.64476 48.0072 5.90578 49.4298 8.14476C64.305 31.5562 81.4809 52.5573 100.958 71.148L100.546 53.4751C100.546 53.4751 100.546 53.4751 100.546 53.4751C87.1341 67.5266 75.9776 83.7312 67.077 102.089C65.8971 104.522 64.7568 106.994 63.6562 109.503C63.8974 109.733 64.1385 109.963 64.3796 110.193C66.8349 108.977 69.2505 107.723 71.6265 106.432C89.5503 96.6864 105.218 84.7881 118.631 70.7367C118.631 70.7367 118.631 70.7367 118.631 70.7367L127.261 61.6946L118.219 53.0638C98.7425 34.4731 76.9651 18.2928 52.8869 4.52288C50.5842 3.20598 48.2604 1.91112 45.9155 0.638316Z" fill="#5724FF"/>
</svg>
